<svg xmlns="http://www.w3.org/2000/svg" xmlns:xlink="http://www.w3.org/1999/xlink" version="1.1" width="1000" height="1000" viewBox="0 0 1000 1000" xml:space="preserve">
<desc>Created with Fabric.js 3.5.0</desc>
<defs>
</defs>
<rect x="0" y="0" width="100%" height="100%" fill="#ffffff"/>
<g transform="matrix(0.1613 0 0 0.1658 184.878 54.9509)" id="824563">
<g style="" vector-effect="non-scaling-stroke">
		<g transform="matrix(0.1333 0 0 -0.1333 -887.7457 -57.7516)">
<path style="stroke: none; stroke-width: 1; stroke-dasharray: none; stroke-linecap: butt; stroke-dashoffset: 0; stroke-linejoin: miter; stroke-miterlimit: 4; is-custom-font: none; font-file-url: none; fill: rgb(245,85,86); fill-rule: nonzero; opacity: 1;" transform=" translate(-3342.1149, -7932.9312)" d="M 3184 8750 c -64 -20 -90 -60 -84 -129 c 2 -23 0 -22 -32 11 c -69 73 -192 61 -281 -29 c -55 -54 -84 -163 -57 -213 c 9 -17 6 -18 -43 -13 c -85 9 -145 -33 -167 -116 c -16 -61 2 -124 45 -158 c 31 -25 32 -26 14 -44 c -21 -21 -34 -79 -25 -113 c 16 -66 94 -114 163 -101 l 36 7 l -18 -28 c -25 -39 -24 -118 3 -171 c 38 -73 111 -113 206 -113 c 98 0 116 -30 160 -259 l 32 -166 l 137 -3 l 137 -3 l 0 88 c 0 231 124 445 309 534 l 70 34 l 1 53 c 0 69 18 109 68 154 c 65 59 148 63 224 13 l 40 -27 l 24 23 l 24 23 l -20 20 c -12 12 -33 20 -53 20 l -34 0 l 24 34 c 29 44 31 119 4 179 c -20 44 -44 62 -85 65 c -29 3 -34 13 -11 22 c 23 8 45 68 45 121 c 0 60 -19 104 -72 161 c -87 95 -206 121 -304 65 c -31 -18 -57 -42 -67 -62 l -15 -33 l -12 42 c -13 52 -49 77 -106 77 c -45 0 -94 -33 -94 -64 c 0 -9 -9 3 -19 26 c -31 66 -95 94 -167 73 z" stroke-linecap="round"/>
</g>
		<g transform="matrix(0.1333 0 0 -0.1333 -472.2145 -0.7629)">
<path style="stroke: none; stroke-width: 1; stroke-dasharray: none; stroke-linecap: butt; stroke-dashoffset: 0; stroke-linejoin: miter; stroke-miterlimit: 4; is-custom-font: none; font-file-url: none; fill: rgb(245,85,86); fill-rule: nonzero; opacity: 1;" transform=" translate(-6458.6508, -7505.5)" d="M 5530 7968 c 59 -233 161 -631 226 -885 l 118 -463 l 75 0 l 76 0 l 159 578 c 264 956 259 938 268 916 c 7 -18 378 -1476 378 -1488 c 0 -3 33 -6 74 -6 l 74 0 l 16 48 c 8 26 123 418 256 872 c 132 454 243 831 245 838 c 3 9 -16 12 -74 12 l -77 0 l -209 -757 c -114 -417 -211 -761 -215 -766 c -5 -6 -183 667 -393 1486 l -9 37 l -67 0 l -66 0 l -209 -760 c -115 -418 -212 -757 -215 -754 c -3 3 -92 344 -197 757 l -191 752 l -76 3 l -75 3 l 108 -423 z" stroke-linecap="round"/>
</g>
		<g transform="matrix(0.1333 0 0 -0.1333 -258.6743 -0.6962)">
<path style="stroke: none; stroke-width: 1; stroke-dasharray: none; stroke-linecap: butt; stroke-dashoffset: 0; stroke-linejoin: miter; stroke-miterlimit: 4; is-custom-font: none; font-file-url: none; fill: rgb(245,85,86); fill-rule: nonzero; opacity: 1;" transform=" translate(-8060, -7505)" d="M 7840 8331 l 0 -60 l 48 -6 c 26 -3 57 -8 70 -11 l 22 -4 l 0 -749 l 0 -750 l -57 -6 c -95 -11 -93 -10 -93 -71 l 0 -54 l 230 0 l 230 0 l 0 54 c 0 61 2 60 -92 71 l -58 6 l 0 750 l 0 749 l 23 4 c 12 3 43 8 70 11 l 47 6 l 0 60 l 0 59 l -220 0 l -220 0 l 0 -59 z" stroke-linecap="round"/>
</g>
		<g transform="matrix(0.1333 0 0 -0.1333 -102.0927 -0.6096)">
<path style="stroke: none; stroke-width: 1; stroke-dasharray: none; stroke-linecap: butt; stroke-dashoffset: 0; stroke-linejoin: miter; stroke-miterlimit: 4; is-custom-font: none; font-file-url: none; fill: rgb(245,85,86); fill-rule: nonzero; opacity: 1;" transform=" translate(-9234.4535, -7504.3503)" d="M 9095 8375 c -161 -30 -278 -105 -352 -225 c -62 -101 -72 -294 -20 -382 c 59 -101 179 -178 362 -233 c 268 -80 326 -100 385 -131 c 80 -42 146 -104 174 -164 c 31 -66 29 -197 -2 -262 c -111 -226 -553 -288 -881 -124 l -68 35 l -26 -55 c -15 -30 -27 -58 -27 -63 c 0 -13 112 -70 193 -97 c 107 -37 224 -54 364 -54 c 154 0 253 19 361 70 c 192 91 281 242 270 461 c -3 72 -9 97 -36 151 c -70 142 -198 220 -506 307 c -339 97 -436 172 -436 338 c 0 142 90 237 267 280 c 94 22 328 22 448 0 c 50 -9 95 -17 101 -17 c 10 0 38 120 29 128 c -8 8 -132 31 -227 41 c -126 14 -285 13 -373 -4 z" stroke-linecap="round"/>
</g>
		<g transform="matrix(0.1333 0 0 -0.1333 95.9804 -0.6962)">
<path style="stroke: none; stroke-width: 1; stroke-dasharray: none; stroke-linecap: butt; stroke-dashoffset: 0; stroke-linejoin: miter; stroke-miterlimit: 4; is-custom-font: none; font-file-url: none; fill: rgb(245,85,86); fill-rule: nonzero; opacity: 1;" transform=" translate(-10720, -7505)" d="M 10130 7505 l 0 -885 l 75 0 l 75 0 l 0 400 l 0 400 l 440 0 l 440 0 l 0 -400 l 0 -400 l 75 0 l 75 0 l 0 885 l 0 885 l -75 0 l -75 0 l 0 -410 l 0 -410 l -440 0 l -440 0 l 0 410 l 0 410 l -75 0 l -75 0 l 0 -885 z" stroke-linecap="round"/>
</g>
		<g transform="matrix(0.1333 0 0 -0.1333 303.854 -0.0309)">
<path style="stroke: none; stroke-width: 1; stroke-dasharray: none; stroke-linecap: butt; stroke-dashoffset: 0; stroke-linejoin: miter; stroke-miterlimit: 4; is-custom-font: none; font-file-url: none; fill: rgb(245,85,86); fill-rule: nonzero; opacity: 1;" transform=" translate(-12279.0574, -7500.0099)" d="M 12300 8375 c -237 -50 -429 -207 -532 -432 c -82 -181 -117 -463 -88 -703 c 40 -325 198 -534 454 -602 c 174 -46 501 -25 680 43 c 83 31 82 29 65 91 c -17 60 -10 59 -126 24 c -101 -31 -266 -56 -364 -56 c -286 0 -459 130 -523 391 c -43 175 -41 446 4 626 c 61 240 219 414 435 479 c 110 33 364 18 435 -26 c 10 -6 15 -46 19 -162 l 6 -153 l 58 -3 l 57 -3 l -2 188 l -3 188 l -50 33 c -86 56 -191 84 -335 88 c -82 2 -148 -1 -190 -11 z" stroke-linecap="round"/>
</g>
		<g transform="matrix(0.1333 0 0 -0.1333 513.4334 -0.6962)">
<path style="stroke: none; stroke-width: 1; stroke-dasharray: none; stroke-linecap: butt; stroke-dashoffset: 0; stroke-linejoin: miter; stroke-miterlimit: 4; is-custom-font: none; font-file-url: none; fill: rgb(245,85,86); fill-rule: nonzero; opacity: 1;" transform=" translate(-13850.9306, -7505)" d="M 13451 7528 c -171 -475 -314 -873 -317 -885 c -6 -22 -4 -23 69 -23 l 75 0 l 62 183 c 35 100 72 206 82 235 l 19 52 l 394 0 l 393 0 l 61 -172 c 34 -95 72 -201 84 -235 l 22 -63 l 87 0 l 88 0 l -24 63 c -13 34 -161 432 -331 885 l -307 822 l -73 0 l -72 0 l -312 -862 z m 558 174 c 95 -266 171 -486 168 -488 c -2 -2 -159 -3 -349 -2 l -346 3 l 102 295 c 56 162 133 384 170 493 c 38 109 72 195 76 190 c 4 -4 85 -226 179 -491 z" stroke-linecap="round"/>
</g>
		<g transform="matrix(0.1333 0 0 -0.1333 721.9067 -0.6096)">
<path style="stroke: none; stroke-width: 1; stroke-dasharray: none; stroke-linecap: butt; stroke-dashoffset: 0; stroke-linejoin: miter; stroke-miterlimit: 4; is-custom-font: none; font-file-url: none; fill: rgb(245,85,86); fill-rule: nonzero; opacity: 1;" transform=" translate(-15414.4493, -7504.3503)" d="M 15275 8375 c -181 -33 -301 -119 -368 -264 c -26 -55 -32 -81 -35 -157 c -6 -129 12 -180 92 -260 c 88 -88 126 -104 501 -219 c 265 -82 368 -172 382 -333 c 8 -96 -14 -165 -73 -231 c -156 -174 -547 -201 -833 -57 l -68 35 l -26 -55 c -15 -30 -27 -58 -27 -63 c 0 -12 105 -65 188 -95 c 101 -36 235 -56 375 -56 c 148 0 248 20 355 70 c 191 91 281 243 270 460 c -6 117 -39 190 -122 268 c -81 75 -179 122 -384 181 c -220 64 -286 89 -355 135 c -85 56 -117 113 -117 206 c 0 149 88 243 267 287 c 94 22 328 22 448 0 c 50 -9 95 -17 100 -17 c 11 0 40 118 31 127 c -9 9 -129 31 -228 42 c -126 14 -285 13 -373 -4 z" stroke-linecap="round"/>
</g>
		<g transform="matrix(0.1333 0 0 -0.1333 919.9804 -0.6962)">
<path style="stroke: none; stroke-width: 1; stroke-dasharray: none; stroke-linecap: butt; stroke-dashoffset: 0; stroke-linejoin: miter; stroke-miterlimit: 4; is-custom-font: none; font-file-url: none; fill: rgb(245,85,86); fill-rule: nonzero; opacity: 1;" transform=" translate(-16900, -7505)" d="M 16310 7505 l 0 -885 l 75 0 l 75 0 l 0 400 l 0 400 l 440 0 l 440 0 l 0 -400 l 0 -400 l 75 0 l 75 0 l 0 885 l 0 885 l -75 0 l -75 0 l 0 -410 l 0 -410 l -440 0 l -440 0 l 0 410 l 0 410 l -75 0 l -75 0 l 0 -885 z" stroke-linecap="round"/>
</g>
		<g transform="matrix(0.1333 0 0 -0.1333 -774.7491 -6.6143)">
<path style="stroke: none; stroke-width: 1; stroke-dasharray: none; stroke-linecap: butt; stroke-dashoffset: 0; stroke-linejoin: miter; stroke-miterlimit: 4; is-custom-font: none; font-file-url: none; fill: rgb(245,85,86); fill-rule: nonzero; opacity: 1;" transform=" translate(-4189.5388, -7549.4971)" d="M 4490 7983 c -191 -33 -319 -158 -320 -312 c -1 -35 -1 -35 -37 32 c -38 71 -122 157 -153 157 c -23 0 -43 -24 -38 -46 c 2 -10 26 -31 53 -47 c 59 -34 111 -82 131 -119 c 19 -37 19 -37 -28 -21 c -53 19 -191 12 -258 -12 c -114 -40 -213 -144 -249 -260 c -24 -77 -35 -165 -27 -210 l 7 -35 l 619 0 l 618 0 l 7 28 c 11 52 -13 163 -55 247 c -51 104 -114 176 -189 213 l -58 29 l 46 34 c 34 25 52 48 67 88 c 28 69 71 125 134 172 l 51 38 l -52 16 c -50 14 -205 19 -269 8 z" stroke-linecap="round"/>
</g>
		<g transform="matrix(0.1333 0 0 -0.1333 -815.37 119.6548)">
<path style="stroke: none; stroke-width: 1; stroke-dasharray: none; stroke-linecap: butt; stroke-dashoffset: 0; stroke-linejoin: miter; stroke-miterlimit: 4; is-custom-font: none; font-file-url: none; fill: rgb(245,85,86); fill-rule: nonzero; opacity: 1;" transform=" translate(-3885, -6602.4996)" d="M 2793 6862 c 18 -289 188 -511 457 -594 c 75 -23 77 -23 630 -23 c 614 0 607 -1 745 65 c 146 70 261 198 320 360 c 21 58 28 100 32 183 l 6 107 l -1098 0 l -1098 0 l 6 -98 z" stroke-linecap="round"/>
</g>
</g>
</g>
</svg>