<?xml version="1.0" standalone="no"?>
<!DOCTYPE svg PUBLIC "-//W3C//DTD SVG 20010904//EN"
 "http://www.w3.org/TR/2001/REC-SVG-20010904/DTD/svg10.dtd">
<svg version="1.0" xmlns="http://www.w3.org/2000/svg"
 width="1512.000000pt" height="255.000000pt" viewBox="0 0 1512.000000 255.000000"
 preserveAspectRatio="xMidYMid meet">

<g transform="translate(0.000000,255.000000) scale(0.100000,-0.100000)"
fill="#000000" stroke="none">
<path d="M664 2456 c-48 -21 -77 -64 -70 -105 l5 -35 -28 31 c-68 75 -203 59
-279 -32 -45 -55 -66 -150 -43 -193 8 -15 2 -17 -59 -17 -62 0 -72 -3 -99 -29
-37 -35 -56 -106 -41 -155 11 -39 46 -81 68 -81 9 0 6 -10 -12 -31 -33 -39
-35 -93 -3 -140 31 -46 62 -61 120 -56 47 4 47 4 33 -18 -39 -59 -23 -151 37
-213 36 -37 107 -62 177 -62 77 0 89 -22 131 -239 l31 -161 129 0 128 0 0 85
c1 217 114 412 288 496 67 32 70 35 66 64 -13 83 53 182 135 204 48 13 109 1
153 -30 26 -18 26 -18 48 5 l22 24 -22 16 c-13 9 -37 16 -53 16 l-29 0 22 24
c32 34 39 103 17 160 -19 49 -51 76 -93 76 l-27 0 28 29 c74 77 36 222 -79
301 -51 35 -118 54 -164 45 -53 -10 -117 -51 -133 -85 -16 -38 -28 -38 -28 -1
0 40 -49 81 -96 81 -47 0 -73 -15 -89 -53 -9 -20 -14 -25 -15 -14 0 32 -29 76
-60 92 -35 18 -75 19 -116 1z"/>
<path d="M6350 2130 c-140 -18 -247 -66 -336 -152 -81 -78 -124 -167 -131
-276 -13 -186 82 -348 251 -430 37 -18 158 -62 269 -99 241 -78 291 -99 342
-144 48 -43 65 -83 65 -157 0 -156 -129 -242 -364 -242 -182 0 -262 32 -378
152 -58 60 -82 79 -95 74 -37 -14 -143 -92 -149 -109 -7 -23 49 -97 119 -155
124 -103 294 -155 507 -156 331 -1 546 122 604 349 43 163 -5 343 -118 442
-72 63 -147 97 -383 172 -225 71 -283 94 -341 138 -95 71 -100 236 -10 320 47
45 135 75 229 81 160 9 256 -23 367 -122 34 -31 65 -56 68 -56 14 0 154 116
154 127 0 22 -61 82 -132 129 -147 98 -343 140 -538 114z"/>
<path d="M9573 2131 c-289 -46 -487 -237 -567 -545 -25 -94 -39 -262 -32 -371
24 -345 160 -593 389 -705 116 -57 190 -74 327 -74 137 0 208 16 329 75 135
66 260 206 305 343 9 27 13 53 9 57 -9 8 -162 49 -185 49 -7 0 -28 -32 -47
-71 -46 -96 -116 -170 -199 -211 -59 -29 -77 -33 -168 -36 -173 -7 -290 44
-366 159 -65 100 -94 201 -107 376 -16 211 13 423 75 545 39 76 114 151 187
184 56 26 72 29 172 29 100 0 115 -2 167 -28 70 -34 150 -119 174 -184 9 -27
23 -62 29 -79 l13 -31 88 5 c49 2 103 7 119 11 27 7 30 12 28 43 -5 95 -89
233 -190 313 -70 55 -177 109 -258 130 -73 19 -221 27 -292 16z"/>
<path d="M12715 2130 c-195 -31 -344 -130 -416 -276 -33 -66 -34 -73 -34 -184
0 -114 1 -117 38 -192 46 -94 119 -164 220 -212 40 -19 160 -62 267 -96 280
-89 353 -130 386 -215 34 -91 3 -204 -70 -255 -77 -52 -135 -65 -297 -65
l-145 0 -76 38 c-60 29 -92 54 -146 112 -38 41 -75 75 -83 75 -25 0 -159 -100
-159 -119 0 -26 64 -106 121 -151 180 -142 488 -196 745 -130 214 55 347 190
377 380 21 138 -26 286 -123 380 -66 65 -162 108 -395 180 -230 71 -311 108
-359 161 -80 87 -71 218 20 298 59 52 118 72 234 78 157 9 258 -27 367 -130
l53 -50 41 29 c23 15 60 45 82 65 l41 36 -23 29 c-64 81 -199 162 -330 195
-89 23 -251 32 -336 19z"/>
<path d="M2803 2110 c-13 -5 -23 -14 -23 -20 0 -32 462 -1606 475 -1619 22
-23 227 -23 249 -1 8 8 92 283 186 610 95 327 174 597 176 599 2 2 6 2 9 -1 3
-3 83 -275 176 -604 94 -330 175 -603 181 -609 13 -14 234 -13 248 1 6 6 117
375 247 819 178 612 232 810 224 818 -16 16 -186 16 -202 0 -7 -7 -90 -289
-184 -628 -95 -339 -178 -622 -183 -627 -12 -12 5 -69 -207 681 -149 530 -163
575 -186 583 -32 12 -195 6 -209 -8 -6 -6 -90 -289 -186 -630 -96 -340 -177
-621 -180 -623 -2 -3 -8 0 -13 5 -4 5 -86 287 -182 628 -158 563 -175 619
-197 627 -30 12 -190 11 -219 -1z"/>
<path d="M5268 2109 c-17 -9 -18 -59 -18 -825 l0 -814 26 -10 c33 -13 185 -13
218 0 l26 10 0 814 c0 796 0 816 -19 826 -25 13 -211 13 -233 -1z"/>
<path d="M7398 2109 c-17 -9 -18 -59 -18 -825 l0 -814 26 -10 c33 -13 185 -13
218 0 l26 9 2 368 3 368 358 3 357 2 0 -362 c0 -201 4 -369 9 -377 11 -17 165
-28 226 -17 l35 7 0 823 c0 742 -2 824 -16 830 -25 10 -218 7 -234 -4 -13 -8
-16 -61 -20 -347 l-5 -338 -355 0 -355 0 -3 335 c-2 301 -4 336 -19 348 -21
15 -210 16 -235 1z"/>
<path d="M11135 2111 c-17 -7 -81 -176 -314 -820 -250 -690 -291 -813 -280
-827 10 -13 31 -15 110 -12 54 1 101 6 104 10 4 4 42 103 84 220 l77 213 334
0 333 0 77 -214 c56 -156 82 -217 96 -222 11 -4 65 -8 121 -8 130 -1 140 6
113 82 -132 378 -563 1564 -571 1572 -13 13 -256 18 -284 6z m252 -627 c67
-186 123 -347 123 -356 0 -17 -19 -18 -259 -18 -143 0 -262 4 -265 9 -4 6 183
528 249 694 4 10 12 16 18 14 6 -2 66 -156 134 -343z"/>
<path d="M13778 2113 c-17 -4 -18 -52 -18 -828 l0 -824 34 -7 c63 -11 216 -1
226 16 6 9 10 167 10 378 l0 362 358 -2 357 -3 3 -368 2 -368 26 -9 c34 -13
200 -13 225 0 19 10 19 30 19 825 0 795 0 815 -19 825 -28 15 -213 13 -234 -2
-15 -12 -17 -47 -19 -348 l-3 -335 -355 0 -355 0 -5 338 c-4 286 -7 339 -20
347 -15 10 -199 12 -232 3z"/>
<path d="M1945 1744 c-11 -2 -45 -9 -75 -15 -146 -30 -259 -145 -260 -266 0
-47 -14 -58 -24 -19 -9 38 -90 141 -130 165 -30 19 -39 21 -52 10 -27 -22 -11
-51 51 -88 75 -46 166 -161 108 -136 -75 31 -218 22 -307 -20 -69 -33 -141
-106 -176 -181 -33 -69 -56 -185 -46 -238 l7 -36 586 0 586 0 -5 85 c-4 74 -9
95 -46 167 -48 98 -122 180 -188 210 l-46 20 50 44 c30 27 53 56 57 73 10 46
61 116 116 158 l50 38 -33 14 c-33 13 -185 24 -223 15z"/>
<path d="M313 668 c6 -121 30 -198 88 -289 84 -129 212 -220 365 -259 72 -19
112 -20 568 -20 549 0 576 3 706 66 103 51 213 161 264 264 41 86 66 187 66
278 l0 62 -1031 0 -1032 0 6 -102z"/>
</g>
</svg>
